<?xml version="1.0" standalone="no"?>
<!DOCTYPE svg PUBLIC "-//W3C//DTD SVG 20010904//EN"
 "http://www.w3.org/TR/2001/REC-SVG-20010904/DTD/svg10.dtd">
<svg version="1.0" xmlns="http://www.w3.org/2000/svg"
 width="462.000000pt" height="462.000000pt" viewBox="0 0 462.000000 462.000000"
 preserveAspectRatio="xMidYMid meet">
<metadata>
Created by potrace 1.14, written by Peter Selinger 2001-2017
</metadata>
<g transform="translate(0.000000,462.000000) scale(0.100000,-0.100000)"
fill="#000000" stroke="none">
<path d="M1745 3816 c-64 -29 -73 -49 -156 -353 -43 -158 -83 -301 -88 -318
-5 -16 -19 -67 -31 -112 l-22 -83 -359 0 c-197 0 -359 1 -359 3 0 2 18 23 39
48 83 91 69 213 -29 264 -75 39 -130 14 -249 -111 -52 -55 -172 -180 -267
-279 -213 -223 -214 -223 -220 -282 -8 -71 16 -106 221 -319 374 -390 376
-392 420 -400 111 -20 206 88 174 199 -5 18 -31 57 -58 87 l-50 55 135 3 c74
1 194 1 268 0 l133 -3 -13 -45 c-13 -44 -123 -445 -127 -465 -2 -5 -16 -58
-31 -117 -20 -74 -27 -117 -22 -142 13 -66 84 -126 151 -126 31 0 84 26 106
52 27 31 34 52 140 448 28 103 99 361 105 383 4 14 18 17 80 17 41 0 74 -4 74
-8 0 -5 -14 -21 -30 -37 -43 -41 -60 -80 -60 -134 1 -71 -34 -29 384 -465 100
-104 187 -195 193 -202 21 -20 83 -37 119 -31 97 16 151 124 110 220 -7 18
-80 101 -162 186 -82 85 -179 186 -216 225 -38 38 -65 72 -62 75 3 3 40 43 82
89 66 72 79 82 109 82 32 0 33 -1 18 -16 -31 -31 -57 -97 -57 -144 0 -115 118
-227 310 -296 42 -15 80 -30 84 -33 4 -4 1 -45 -8 -91 -24 -128 -16 -259 20
-333 32 -66 82 -106 144 -114 l39 -5 -19 -67 c-43 -154 -46 -196 -19 -248 63
-125 229 -102 274 37 8 25 40 142 72 260 32 118 62 219 66 224 4 4 36 -16 71
-45 211 -179 398 -208 485 -75 56 86 65 274 21 444 -2 7 26 22 64 36 271 96
388 240 317 391 -25 53 -75 100 -155 147 -57 33 -158 78 -175 78 -4 0 -19 4
-33 10 -22 8 -24 13 -17 33 16 42 25 129 25 232 -1 81 -5 110 -24 153 -26 59
-72 104 -124 122 -20 6 -36 15 -36 18 0 4 11 44 24 90 29 100 27 160 -5 207
-25 37 -81 65 -127 65 -35 -1 -85 -28 -110 -60 -12 -15 -47 -122 -82 -250 -41
-153 -68 -232 -82 -247 -26 -28 -29 -28 -54 -5 -111 100 -238 175 -317 187
-41 6 -54 17 -178 147 -74 77 -136 144 -139 148 -3 4 -23 19 -44 34 -88 59
-206 8 -223 -98 -9 -60 5 -101 53 -155 l46 -51 -261 0 c-204 0 -259 3 -256 13
2 6 27 98 55 202 28 105 62 229 76 276 13 47 26 94 29 105 2 10 9 35 14 54 27
87 4 162 -60 204 -43 29 -87 33 -134 12z m587 -920 c13 -13 57 -59 99 -102
l77 -79 4 -110 c3 -60 9 -117 12 -126 11 -26 -85 -123 -157 -159 -33 -16 -63
-30 -67 -30 -4 0 -7 18 -7 40 0 36 7 49 61 106 74 80 97 131 84 188 -14 60
-52 104 -102 118 l-43 11 0 84 c0 45 3 83 8 83 4 0 18 -11 31 -24z m-1642
-323 l0 -338 -82 85 c-231 238 -240 248 -231 263 9 16 304 327 310 327 1 0 3
-152 3 -337z m2888 234 c29 -33 44 -88 43 -172 0 -76 -18 -204 -30 -217 -3 -4
-51 0 -106 10 l-100 17 23 85 c12 47 34 126 47 175 38 144 39 146 73 134 16
-6 39 -20 50 -32z m-673 -34 c22 -14 42 -29 45 -33 3 -3 26 -23 52 -44 l48
-38 -23 -27 -22 -28 -20 38 c-11 21 -46 66 -78 99 -64 65 -64 75 -2 33z m-281
-181 c15 -18 15 -20 -4 -37 -15 -14 -20 -15 -21 -4 0 8 -2 24 -5 37 -5 27 7
28 30 4z m469 -69 c-16 -58 -18 -61 -50 -65 -19 -2 -36 -2 -38 2 -3 5 97 132
101 127 2 -1 -4 -30 -13 -64z m-47 -170 c-37 -131 -48 -163 -62 -174 -37 -31
-58 -107 -43 -161 5 -17 -2 -57 -18 -115 -14 -48 -26 -89 -28 -91 -4 -4 -87
140 -116 201 l-24 48 38 72 c20 40 60 109 88 155 l51 82 60 0 c52 0 59 -2 54
-17z m451 -13 l71 -12 -23 -66 c-39 -114 -34 -111 -74 -35 -20 37 -44 80 -54
94 -15 23 -14 44 2 35 3 -2 38 -9 78 -16z m248 -67 c268 -101 322 -239 142
-358 -60 -39 -201 -98 -224 -93 -9 2 -21 17 -26 33 -5 17 -25 69 -44 118 l-35
87 36 89 c20 49 36 91 36 94 0 19 22 57 32 57 7 0 44 -12 83 -27z m-358 -70
c21 -38 47 -86 57 -107 l19 -40 -33 -60 c-38 -73 -116 -204 -135 -229 -10 -14
-24 -17 -57 -15 l-44 3 28 100 c16 55 36 113 44 129 8 16 14 39 14 50 0 32 53
236 61 236 4 0 25 -30 46 -67z m-650 7 c-22 -39 -37 -51 -37 -28 0 10 48 68
56 68 1 0 -7 -18 -19 -40z m-88 -121 c9 -26 6 -42 -23 -112 -19 -45 -39 -99
-46 -119 -6 -21 -18 -38 -26 -38 -19 0 -147 49 -158 60 -7 7 -6 10 1 10 9 0
151 139 205 202 30 34 34 34 47 -3z m118 -231 c29 -51 51 -93 50 -94 -3 -3
-161 27 -164 30 -5 5 49 156 55 156 4 0 30 -42 59 -92z m777 7 c14 -38 24 -70
23 -71 -4 -4 -167 -31 -167 -28 0 16 105 183 111 177 4 -4 19 -39 33 -78z
m-839 -169 c17 -3 53 -8 80 -12 28 -5 53 -8 57 -9 16 -1 18 -16 4 -56 -8 -24
-26 -89 -40 -143 -56 -213 -52 -204 -91 -200 -52 5 -75 21 -98 72 -24 56 -30
188 -11 270 15 64 14 59 14 78 0 12 7 14 28 10 15 -3 41 -8 57 -10z m893 7
c-1 -5 4 -39 11 -78 15 -87 16 -198 2 -251 -37 -138 -182 -127 -370 28 -65 53
-71 62 -59 77 7 10 44 56 82 103 l68 86 77 11 c123 19 146 23 150 27 8 7 41 4
39 -3z m-409 -83 c-18 -22 -34 -40 -36 -40 -5 0 7 61 14 73 2 4 15 7 29 7 l25
0 -32 -40z"/>
<path d="M3874 2729 c-32 -15 -47 -31 -62 -66 -34 -79 -16 -138 68 -224 180
-184 365 -383 365 -394 0 -7 -74 -90 -165 -185 -239 -249 -260 -272 -272 -300
-52 -124 59 -251 183 -210 28 10 65 40 126 104 47 50 170 178 272 284 102 106
196 210 208 230 29 47 29 98 1 150 -13 23 -107 128 -209 234 -102 106 -223
233 -270 282 -113 119 -160 138 -245 95z"/>
</g>
</svg>
